<svg width="20" height="21" viewBox="0 0 20 21" fill="none" xmlns="http://www.w3.org/2000/svg">
<path fill-rule="evenodd" clip-rule="evenodd" d="M10 20.5901C11.3132 20.5901 12.6136 20.3314 13.8268 19.8289C15.0401 19.3263 16.1425 18.5897 17.0711 17.6612C17.9997 16.7326 18.7362 15.6302 19.2388 14.4169C19.7413 13.2037 20 11.9033 20 10.5901C20 9.27687 19.7413 7.97651 19.2388 6.76325C18.7362 5.55 17.9997 4.44761 17.0711 3.51902C16.1425 2.59043 15.0401 1.85384 13.8268 1.35129C12.6136 0.848745 11.3132 0.590088 10 0.590088C7.34784 0.590088 4.8043 1.64366 2.92893 3.51902C1.05357 5.39438 0 7.93792 0 10.5901C0 13.2423 1.05357 15.7858 2.92893 17.6612C4.8043 19.5365 7.34784 20.5901 10 20.5901ZM9.74222 14.6345L15.2978 7.96787L13.5911 6.54564L8.81333 12.2779L6.34111 9.80453L4.77 11.3756L8.10333 14.709L8.96333 15.569L9.74222 14.6345Z" fill="white"/>
</svg>
