<svg width="20" height="39" viewBox="0 0 20 39" fill="none" xmlns="http://www.w3.org/2000/svg">
<path d="M2.57874 0.630135L19.5355 18.0338C19.8333 18.3395 20 18.7495 20 19.1764C20 19.6033 19.8333 20.0133 19.5355 20.319L2.57874 37.7292C2.44001 37.8718 2.27414 37.9851 2.09093 38.0625C1.90771 38.1398 1.71086 38.1797 1.51199 38.1797C1.31313 38.1797 1.11627 38.1398 0.933054 38.0625C0.749838 37.9851 0.583969 37.8718 0.44524 37.7292C0.159803 37.4369 0 37.0445 0 36.6358C0 36.2271 0.159803 35.8347 0.44524 35.5423L16.3909 19.1764L0.44524 2.81378C0.160782 2.5216 0.00159836 2.12984 0.00159836 1.72196C0.00159836 1.31408 0.160782 0.922319 0.44524 0.630135C0.583969 0.487581 0.749838 0.374277 0.933054 0.296912C1.11627 0.219546 1.31313 0.179688 1.51199 0.179688C1.71086 0.179688 1.90771 0.219546 2.09093 0.296912C2.27414 0.374277 2.44001 0.487581 2.57874 0.630135Z" fill="#C4C4C4"/>
</svg>
