<svg width="20" height="38" viewBox="0 0 20 38" fill="none" xmlns="http://www.w3.org/2000/svg">
<path d="M2.57874 0.450448L19.5355 17.8542C19.8333 18.1598 20 18.5698 20 18.9967C20 19.4236 19.8333 19.8336 19.5355 20.1393L2.57874 37.5496C2.44001 37.6921 2.27414 37.8054 2.09093 37.8828C1.90771 37.9601 1.71086 38 1.51199 38C1.31313 38 1.11627 37.9601 0.933054 37.8828C0.749838 37.8054 0.583969 37.6921 0.44524 37.5496C0.159803 37.2572 0 36.8648 0 36.4561C0 36.0474 0.159803 35.655 0.44524 35.3626L16.3909 18.9967L0.44524 2.6341C0.160782 2.34191 0.00159836 1.95015 0.00159836 1.54227C0.00159836 1.13439 0.160782 0.742631 0.44524 0.450448C0.583969 0.307894 0.749838 0.19459 0.933054 0.117224C1.11627 0.039859 1.31313 0 1.51199 0C1.71086 0 1.90771 0.039859 2.09093 0.117224C2.27414 0.19459 2.44001 0.307894 2.57874 0.450448Z" fill="#333333"/>
</svg>
